<?xml version="1.0" encoding="utf-8"?>
<!-- Generator: Adobe Illustrator 16.0.0, SVG Export Plug-In . SVG Version: 6.00 Build 0)  -->
<!DOCTYPE svg PUBLIC "-//W3C//DTD SVG 1.1//EN" "http://www.w3.org/Graphics/SVG/1.1/DTD/svg11.dtd">
<svg version="1.1" id="Layer_1" xmlns="http://www.w3.org/2000/svg" xmlns:xlink="http://www.w3.org/1999/xlink" x="0px" y="0px"
	 width="60px" height="60px" viewBox="-22.667 129.333 60 60" enable-background="new -22.667 129.333 60 60" xml:space="preserve">
<g>
	<path fill="#FFFFFF" d="M2.972,163.781v-1.355l-6.634,5.6l6.634,5.602v-1.355c0-0.459,0.37-0.828,0.828-0.828h14.985v-6.834H3.8
		C3.342,164.609,2.972,164.238,2.972,163.781z"/>
	<path fill="#FFFFFF" d="M11.696,146.396c0,0.457-0.37,0.826-0.828,0.826H-4.117v6.834h14.985c0.458,0,0.828,0.371,0.828,0.828
		v1.355l6.633-5.6l-6.633-5.602V146.396z"/>
	<path fill="#FFFFFF" d="M7.333,133.535c-14.225,0-25.797,11.573-25.797,25.798s11.572,25.798,25.797,25.798
		c14.226,0,25.799-11.573,25.799-25.798S21.559,133.535,7.333,133.535z M20.441,172.271c0,0.457-0.371,0.826-0.828,0.826H4.626
		v2.311c0,0.322-0.187,0.615-0.479,0.75c-0.111,0.055-0.23,0.078-0.348,0.078c-0.192,0-0.382-0.066-0.535-0.195l-8.744-7.383
		c-0.186-0.156-0.294-0.389-0.294-0.633s0.108-0.475,0.294-0.631l8.744-7.383c0.246-0.209,0.592-0.254,0.883-0.119
		c0.292,0.137,0.479,0.428,0.479,0.752v2.309h14.987c0.457,0,0.828,0.371,0.828,0.828V172.271z M20.147,151.271l-8.747,7.383
		c-0.151,0.131-0.342,0.195-0.532,0.195c-0.119,0-0.238-0.023-0.35-0.076c-0.292-0.135-0.479-0.428-0.479-0.752v-2.309H-4.945
		c-0.458,0-0.827-0.371-0.827-0.828v-8.488c0-0.459,0.369-0.828,0.827-0.828h14.984v-2.311c0-0.322,0.188-0.615,0.479-0.75
		c0.293-0.137,0.638-0.09,0.882,0.117l8.747,7.381c0.187,0.158,0.294,0.391,0.294,0.635
		C20.441,150.883,20.334,151.115,20.147,151.271z"/>
</g>
</svg>
