<?xml version="1.0" encoding="utf-8"?>
<!-- Generator: Adobe Illustrator 16.0.0, SVG Export Plug-In . SVG Version: 6.00 Build 0)  -->
<!DOCTYPE svg PUBLIC "-//W3C//DTD SVG 1.1//EN" "http://www.w3.org/Graphics/SVG/1.1/DTD/svg11.dtd">
<svg version="1.1" id="Capa_1" xmlns="http://www.w3.org/2000/svg" xmlns:xlink="http://www.w3.org/1999/xlink" x="0px" y="0px"
	 width="42.52px" height="35.899px" viewBox="0 0 42.52 35.899" enable-background="new 0 0 42.52 35.899" xml:space="preserve">
<path fill-rule="evenodd" clip-rule="evenodd" fill="#FFFFFF" d="M30.954,25.115c-4.483,0-8.967,0-13.45,0
	c-0.018,0.034-0.036,0.067-0.054,0.102c0.13,0.08,0.248,0.194,0.39,0.236c1.91,0.563,3.415,2.464,3.618,4.435
	c0.287,2.787-1.31,4.938-3.648,5.734c-2.718,0.926-5.658-0.555-6.642-3.182c-0.945-2.523,0.029-5.263,2.268-6.529
	c0.313-0.178,0.658-0.299,0.988-0.446c0.135-0.061,0.268-0.121,0.402-0.182c-0.009-0.049-0.018-0.098-0.026-0.146
	c-0.493-0.039-0.989-0.062-1.481-0.121c-1.491-0.182-2.581-1.438-2.891-2.817c-0.286-1.274-0.632-2.536-0.946-3.805
	c-0.283-1.146-0.555-2.294-0.843-3.438c-0.314-1.249-0.646-2.493-0.962-3.742c-0.284-1.126-0.552-2.257-0.834-3.385
	c-0.33-1.32-0.678-2.637-0.996-3.961C5.763,3.514,5.53,3.524,5.27,3.524c-1.15,0-2.301-0.036-3.449,0.011
	C0.827,3.575-0.002,2.729,0,1.809c0.003-0.992,0.554-1.742,1.626-1.78c1.705-0.062,3.429-0.031,5.123,0.16
	C7.978,0.326,8.802,1.25,9.134,2.415c0.591,2.078,1.056,4.193,1.585,6.29c0.561,2.221,1.145,4.435,1.702,6.656
	c0.464,1.852,0.91,3.707,1.352,5.563c0.106,0.447,0.292,0.682,0.81,0.681c6.461-0.015,12.921-0.013,19.381-0.004
	c0.457,0,0.653-0.146,0.776-0.621c0.527-2.039,1.121-4.061,1.68-6.091c0.507-1.837,0.996-3.679,1.5-5.516
	c0.083-0.302,0.007-0.462-0.32-0.465c-0.2-0.002-0.401-0.005-0.602-0.005c-7.61,0-15.221-0.008-22.83,0.016
	c-0.57,0.002-0.778-0.225-0.891-0.709c-0.155-0.672-0.334-1.338-0.504-2.007c-0.175-0.687-0.078-0.819,0.614-0.819
	c9.508,0,19.016,0,28.523,0.001c0.68,0,0.693,0.006,0.507,0.697c-0.586,2.172-1.191,4.34-1.776,6.513
	c-0.457,1.7-0.881,3.409-1.346,5.107c-0.47,1.714-0.918,3.437-1.475,5.123c-0.475,1.437-1.681,2.217-3.211,2.259
	c-0.307,0.009-0.613,0.001-0.921,0.001c-0.019,0.045-0.037,0.088-0.057,0.132c0.11,0.077,0.209,0.186,0.331,0.227
	c2.002,0.676,3.16,2.056,3.609,4.12c0.522,2.402-1,4.763-2.742,5.693c-2.348,1.254-5.49,0.516-6.96-1.732
	c-1.87-2.86-0.755-6.579,2.392-7.962c0.244-0.107,0.503-0.183,0.755-0.272C30.996,25.232,30.976,25.174,30.954,25.115z
	 M32.394,28.739c-1.013-0.05-1.858,0.682-1.873,1.702c-0.017,1.104,0.615,1.765,1.704,1.898c0.927,0.113,1.875-0.77,1.931-1.698
	C34.215,29.65,33.417,28.789,32.394,28.739z M16.228,28.739c-0.996-0.042-1.868,0.731-1.913,1.698
	c-0.043,0.941,0.787,1.858,1.732,1.913c0.995,0.058,1.883-0.752,1.929-1.758C18.019,29.612,17.235,28.781,16.228,28.739z"/>
</svg>
