<?xml version="1.0" encoding="utf-8"?>
<!-- Generator: Adobe Illustrator 24.1.3, SVG Export Plug-In . SVG Version: 6.00 Build 0)  -->
<svg version="1.1" id="Capa_1" xmlns="http://www.w3.org/2000/svg" xmlns:xlink="http://www.w3.org/1999/xlink" x="0px" y="0px"
	 viewBox="0 0 60 60" style="enable-background:new 0 0 60 60;" xml:space="preserve">
<style type="text/css">
	.st0{fill-rule:evenodd;clip-rule:evenodd;fill:#F9F9F9;}
	.st1{fill-rule:evenodd;clip-rule:evenodd;fill:#FFFFFF;}
</style>
<g>
	<path class="st1" d="M16.57,57.14C9.41,56.77,3.49,51.87,3.05,44.78c-0.59-9.59-0.74-19.25-0.27-28.84
		C3.18,7.74,9.16,2.7,17.87,2.43c8.38-0.26,16.78-0.23,25.17-0.01c7.77,0.2,13.8,5.71,14.16,13.53c0.44,9.53,0.38,19.1-0.01,28.63
		c-0.27,6.61-6.62,12.29-13.26,12.53C39.26,57.29,21.02,57.38,16.57,57.14z M30.04,52.02c4.1,0,8.2,0.01,12.29,0
		c5.61-0.02,9.74-3.86,9.85-9.5c0.16-7.9,0.11-15.8,0.09-23.7c-0.02-7.53-3.68-11.23-11.26-11.31c-7.4-0.08-14.81-0.03-22.21,0
		c-1,0-2.01,0.14-2.99,0.32c-4.08,0.73-7.06,3.56-7.71,7.65c-0.39,2.47-0.5,5-0.48,7.51c0.06,6.95-0.07,13.93,0.5,20.85
		c0.43,5.25,4.32,8.15,9.64,8.18C21.85,52.04,25.94,52.02,30.04,52.02z"/>
	<path class="st1" d="M30.23,15.6c7.91,0.15,14.21,6.59,14.11,14.42c-0.11,7.91-6.76,14.33-14.65,14.15
		c-7.89-0.19-14.08-6.68-13.91-14.59C15.94,21.57,22.28,15.45,30.23,15.6z M30.1,20.85c-5.15-0.01-9.05,3.8-9.07,8.87
		c-0.02,5.2,3.95,9.25,9.03,9.2c5.02-0.05,9.05-4.09,9.04-9.04C39.07,24.82,35.13,20.86,30.1,20.85z"/>
	<path class="st1" d="M48.21,15.01c0.03,1.82-1.54,3.49-3.34,3.56c-1.81,0.07-3.44-1.5-3.49-3.36c-0.06-1.95,1.34-3.43,3.29-3.47
		C46.58,11.7,48.18,13.17,48.21,15.01z"/>
</g>
</svg>
