<?xml version="1.0" encoding="utf-8"?>
<!-- Generator: Adobe Illustrator 16.0.0, SVG Export Plug-In . SVG Version: 6.00 Build 0)  -->
<!DOCTYPE svg PUBLIC "-//W3C//DTD SVG 1.1//EN" "http://www.w3.org/Graphics/SVG/1.1/DTD/svg11.dtd">
<svg version="1.1" id="Capa_1" xmlns="http://www.w3.org/2000/svg" xmlns:xlink="http://www.w3.org/1999/xlink" x="0px" y="0px"
	 width="130px" height="130px" viewBox="0 0 130 130" enable-background="new 0 0 130 130" xml:space="preserve">
<circle fill="#AB172B" cx="65.555" cy="65.445" r="64.555"/>
<g>
	<path fill-rule="evenodd" clip-rule="evenodd" fill="#FFFFFF" d="M27.161,89.446c2.918-4.231,5.831-8.469,8.758-12.694
		c3.188-4.6,6.391-9.188,9.588-13.783c1.126-1.618,2.252-1.728,3.633-0.349c1.438,1.436,2.872,2.875,4.346,4.352
		c0.213-0.197,0.399-0.356,0.572-0.529c5.789-5.789,11.573-11.582,17.37-17.362c0.364-0.363,0.537-0.721,0.525-1.245
		c-0.034-1.528-0.012-3.058-0.012-4.721c-0.36,0-0.672,0-0.984,0c-5.599,0-11.199,0.001-16.799,0
		c-1.899-0.001-2.573-0.678-2.573-2.579c-0.001-3.666-0.001-7.332,0-10.999c0-1.762,0.704-2.478,2.436-2.478
		c6.454-0.001,12.907-0.001,19.361,0c1.699,0.001,2.426,0.722,2.427,2.415c0.002,6.127,0.008,12.254-0.012,18.382
		c-0.002,0.638,0.171,1.141,0.535,1.657c9.052,12.872,18.09,25.753,27.13,38.635c0.201,0.287,0.409,0.574,0.573,0.883
		c0.687,1.297-0.136,2.745-1.599,2.827c-0.25,0.015-0.502,0.007-0.753,0.007c-23.956,0-47.913-0.006-71.869,0.019
		c-1.191,0.001-2.101-0.279-2.651-1.383C27.161,90.149,27.161,89.798,27.161,89.446z M73.615,52.318
		c-2.345,2.345-4.615,4.616-6.886,6.886c-3.852,3.853-7.7,7.708-11.557,11.557c-1.149,1.147-2.16,1.141-3.319,0.004
		c-0.502-0.492-0.997-0.991-1.492-1.491c-0.875-0.883-1.747-1.77-2.676-2.712c-4.992,7.181-9.909,14.252-14.885,21.411
		c22.006,0,43.871,0,65.845,0C90.275,76.051,81.974,64.225,73.615,52.318z M55.504,30.935c0,2.795,0,5.54,0,8.296
		c5.493,0,10.93,0,16.381,0c0-2.787,0-5.531,0-8.296C66.394,30.935,60.957,30.935,55.504,30.935z"/>
</g>
</svg>
