<?xml version="1.0" encoding="utf-8"?>
<!-- Generator: Adobe Illustrator 16.0.0, SVG Export Plug-In . SVG Version: 6.00 Build 0)  -->
<!DOCTYPE svg PUBLIC "-//W3C//DTD SVG 1.1//EN" "http://www.w3.org/Graphics/SVG/1.1/DTD/svg11.dtd">
<svg version="1.1" id="Layer_1" xmlns="http://www.w3.org/2000/svg" xmlns:xlink="http://www.w3.org/1999/xlink" x="0px" y="0px"
	 width="60px" height="60px" viewBox="57.334 129.333 60 60" enable-background="new 57.334 129.333 60 60" xml:space="preserve">
<g>
	<path fill="#FFFFFF" d="M87.333,133.535c-14.225,0-25.797,11.573-25.797,25.798s11.572,25.798,25.797,25.798
		c14.226,0,25.799-11.573,25.799-25.798S101.559,133.535,87.333,133.535z M97.571,169.595c-0.824,0.821-2.156,0.821-2.979,0
		l-7.015-7.017l-1.627,4.344c-0.67,1.856-3.297,1.853-3.961-0.008l-5.698-15.546c-0.626-1.713,1.019-3.387,2.743-2.788l15.998,5.572
		c1.833,0.657,1.869,3.236,0.054,3.944l-4.385,1.653l6.869,6.867C98.393,167.439,98.393,168.772,97.571,169.595z"/>
</g>
</svg>
