<?xml version="1.0" encoding="utf-8"?>
<!-- Generator: Adobe Illustrator 16.0.0, SVG Export Plug-In . SVG Version: 6.00 Build 0)  -->
<!DOCTYPE svg PUBLIC "-//W3C//DTD SVG 1.1//EN" "http://www.w3.org/Graphics/SVG/1.1/DTD/svg11.dtd">
<svg version="1.1" id="Capa_1" xmlns="http://www.w3.org/2000/svg" xmlns:xlink="http://www.w3.org/1999/xlink" x="0px" y="0px"
	 width="130px" height="130px" viewBox="0 0 130 130" enable-background="new 0 0 130 130" xml:space="preserve">
<circle fill="#AB172B" cx="65.555" cy="65.445" r="64.555"/>
<g>
	<path fill-rule="evenodd" clip-rule="evenodd" fill="#FFFFFF" d="M29.519,62.726c0.188-1.362,0.323-2.73,0.568-4.079
		c1.509-8.359,5.475-15.359,11.814-20.987c5.47-4.856,11.863-7.793,19.108-8.792c6.789-0.938,13.341-0.019,19.626,2.726
		c0.104,0.046,0.205,0.104,0.384,0.196c-1.958,2.014-3.88,3.99-5.88,6.048c-7.233-2.338-14.506-2.005-21.55,1.375
		c-5.91,2.836-10.306,7.266-13.271,13.12c-5.688,11.234-3.063,25.149,6.388,33.822c9.352,8.579,23.414,9.919,34.201,3.305
		c10.797-6.623,16.711-20.134,12.258-33.591c2.022-1.963,4.006-3.89,6.057-5.883c0.14,0.3,0.275,0.564,0.389,0.837
		c7.676,18.248-0.558,39.254-18.584,47.409c-14.76,6.68-32.067,2.864-42.628-9.422c-5.171-6.015-8.103-12.986-8.759-20.902
		c-0.02-0.208-0.081-0.413-0.122-0.622C29.519,65.764,29.519,64.246,29.519,62.726z"/>
	<path fill-rule="evenodd" clip-rule="evenodd" fill="#FFFFFF" d="M90.368,64.361c0.003,12.933-9.261,23.39-21.457,24.842
		c-12.951,1.546-24.939-7.484-26.976-20.321c-2.053-12.915,6.373-25.102,19.229-27.759c4.373-0.904,8.686-0.578,12.909,0.886
		c0.423,0.148,0.648,0.319,0.671,0.824c0.055,1.208,0.209,2.412,0.283,3.62c0.015,0.224-0.086,0.518-0.24,0.679
		c-0.9,0.942-1.855,1.837-2.751,2.788c-0.328,0.35-0.607,0.229-0.952,0.116c-8.759-2.92-17.991,2.047-20.386,10.968
		c-2.473,9.204,3.99,18.658,13.464,19.698c8.523,0.938,16.107-4.819,17.473-13.293c0.411-2.552,0.178-5.064-0.681-7.509
		c-0.159-0.448-0.096-0.725,0.249-1.047c0.863-0.813,1.667-1.692,2.54-2.493c0.239-0.219,0.649-0.367,0.974-0.354
		c1.185,0.046,2.366,0.197,3.55,0.263c0.406,0.023,0.562,0.199,0.688,0.552C89.889,59.461,90.353,62.185,90.368,64.361z"/>
	<path fill-rule="evenodd" clip-rule="evenodd" fill="#FFFFFF" d="M92.77,38.228c2.136,0.185,4.186,0.382,6.241,0.534
		c0.991,0.071,1.756,0.446,2.123,1.393c0.379,0.979,0.034,1.786-0.688,2.504c-2.881,2.86-5.753,5.73-8.61,8.613
		c-0.653,0.656-1.381,0.913-2.31,0.819c-2.195-0.22-4.395-0.398-6.597-0.538c-0.284-0.019-0.651,0.221-0.877,0.445
		c-4.611,4.588-9.207,9.189-13.807,13.792c-0.201,0.2-0.401,0.405-0.606,0.601c-0.995,0.957-2.302,1.001-3.169,0.103
		c-0.853-0.877-0.807-2.159,0.137-3.116c1.437-1.453,2.887-2.889,4.329-4.332c3.34-3.342,6.676-6.687,10.028-10.018
		c0.38-0.376,0.55-0.721,0.488-1.295c-0.233-2.194-0.438-4.394-0.533-6.595c-0.025-0.572,0.237-1.314,0.632-1.72
		c2.959-3.049,5.983-6.035,8.99-9.036c0.651-0.648,1.437-0.841,2.29-0.518c0.886,0.335,1.319,1.031,1.396,1.97
		C92.398,33.936,92.584,36.039,92.77,38.228z"/>
	<path fill-rule="evenodd" clip-rule="evenodd" fill="#FFFFFF" d="M77.093,62.729c1.055,3.379-0.029,8.996-5.047,12.102
		c-4.378,2.712-10.063,2.164-13.854-1.334c-3.811-3.513-4.828-9.107-2.489-13.694c2.342-4.592,7.44-7.122,12.478-6.101
		c-0.201,0.224-0.354,0.409-0.524,0.579c-2.096,2.103-4.217,4.181-6.285,6.309c-1.853,1.909-2.295,4.686-1.206,7.064
		c1.089,2.382,3.477,3.862,6.116,3.75c1.687-0.068,3.123-0.733,4.313-1.928c2.034-2.031,4.067-4.061,6.092-6.101
		C76.859,63.199,76.959,62.947,77.093,62.729z"/>
</g>
</svg>
