<?xml version="1.0" encoding="utf-8"?>
<!-- Generator: Adobe Illustrator 16.0.0, SVG Export Plug-In . SVG Version: 6.00 Build 0)  -->
<!DOCTYPE svg PUBLIC "-//W3C//DTD SVG 1.1//EN" "http://www.w3.org/Graphics/SVG/1.1/DTD/svg11.dtd">
<svg version="1.1" id="Layer_1" xmlns="http://www.w3.org/2000/svg" xmlns:xlink="http://www.w3.org/1999/xlink" x="0px" y="0px"
	 width="60px" height="60px" viewBox="-98 129.333 60 60" enable-background="new -98 129.333 60 60" xml:space="preserve">
<g>
	<circle fill="#FFFFFF" cx="-68.552" cy="159.333" r="4.937"/>
	<path fill="#FFFFFF" d="M-68,133.535c-14.225,0-25.798,11.573-25.798,25.798S-82.225,185.131-68,185.131
		s25.798-11.573,25.798-25.798S-53.775,133.535-68,133.535z M-54.545,161.959h-3.223c-0.283,1.162-0.748,2.256-1.364,3.242
		l2.259,2.262l-3.631,3.631l-2.277-2.277c-0.994,0.605-2.091,1.057-3.26,1.326v3.197h-5.135v-3.223
		c-1.165-0.283-2.256-0.748-3.244-1.365l-2.26,2.262l-3.631-3.633l2.277-2.279c-0.605-0.992-1.058-2.09-1.328-3.258h-3.196v-5.135
		h3.223c0.282-1.164,0.748-2.256,1.364-3.244l-2.26-2.262l3.632-3.631l2.279,2.279c0.993-0.607,2.091-1.059,3.259-1.328v-3.197
		h5.136v3.223c1.164,0.283,2.256,0.748,3.244,1.365l2.26-2.26l3.631,3.631l-2.277,2.277c0.605,0.996,1.057,2.092,1.327,3.262h3.196
		V161.959z"/>
</g>
</svg>
