<?xml version="1.0" encoding="utf-8"?>
<!-- Generator: Adobe Illustrator 16.0.0, SVG Export Plug-In . SVG Version: 6.00 Build 0)  -->
<!DOCTYPE svg PUBLIC "-//W3C//DTD SVG 1.1//EN" "http://www.w3.org/Graphics/SVG/1.1/DTD/svg11.dtd">
<svg version="1.1" id="Capa_1" xmlns="http://www.w3.org/2000/svg" xmlns:xlink="http://www.w3.org/1999/xlink" x="0px" y="0px"
	 width="130px" height="130px" viewBox="0 0 130 130" enable-background="new 0 0 130 130" xml:space="preserve">
<circle fill="#AB172B" cx="65.555" cy="65.445" r="64.555"/>
<g>
	<path fill-rule="evenodd" clip-rule="evenodd" fill="#FFFFFF" d="M20.279,69.171c0.884-1.026,1.692-2.13,2.663-3.063
		c6.614-6.36,13.978-11.649,22.408-15.36c6.679-2.94,13.633-4.67,20.982-4.426c7.118,0.236,13.802,2.212,20.178,5.288
		c8.233,3.971,15.458,9.354,21.874,15.838c1.777,1.799,1.784,3.054-0.002,4.842c-8.23,8.228-17.563,14.762-28.646,18.602
		c-11.217,3.887-22.242,3.19-33.104-1.354c-9.695-4.056-18.021-10.104-25.349-17.579c-0.396-0.404-0.673-0.924-1.005-1.39
		C20.279,70.103,20.279,69.637,20.279,69.171z M83.496,69.824c-0.019-10.106-8.357-18.318-18.573-18.291
		C54.834,51.561,46.632,59.81,46.65,69.912C46.668,80,54.913,88.216,65.011,88.204C75.211,88.195,83.517,79.938,83.496,69.824z
		 M45.332,83.139c-5.291-8.865-5.295-17.685,0.193-26.722c-7.15,3.572-13.324,8.061-18.939,13.457
		C32.231,75.283,38.374,79.769,45.332,83.139z M103.389,69.868c-5.591-5.371-11.698-9.841-18.731-13.34
		c5.452,8.969,5.441,17.755-0.008,26.698C91.688,79.68,97.803,75.226,103.389,69.868z"/>
	<path fill-rule="evenodd" clip-rule="evenodd" fill="#FFFFFF" d="M20.279,54.852c0.858-1.604,2.413-2.474,3.782-3.514
		c7.966-6.048,16.609-10.777,26.3-13.476c10.129-2.818,20.221-2.699,30.281,0.311c0.717,0.214,1.093,0.072,1.482-0.531
		c0.824-1.28,1.299-2.656,1.364-4.174c0.076-1.778,1.153-2.934,2.699-2.889c1.554,0.045,2.591,1.269,2.535,3.036
		c-0.072,2.342-0.745,4.514-2.012,6.581c1.975,0.899,3.886,1.77,5.859,2.671c0.949-1.334,1.348-2.809,1.409-4.41
		c0.08-2.053,2.092-3.261,3.839-2.316c0.927,0.501,1.391,1.309,1.388,2.353c-0.005,2.194-0.558,4.254-1.588,6.188
		c-0.12,0.227-0.241,0.454-0.393,0.733c1.758,1.127,3.487,2.234,5.287,3.389c1.275-1.459,1.872-3.156,1.943-5.078
		c0.073-1.983,1.937-3.226,3.661-2.438c1.053,0.479,1.584,1.344,1.567,2.504c-0.039,2.723-0.85,5.199-2.404,7.435
		c-0.163,0.234-0.329,0.468-0.511,0.727c0.541,0.44,1.038,0.842,1.532,1.244c1.515,1.238,1.817,2.737,0.813,4.008
		c-0.994,1.257-2.592,1.293-4.085,0.081c-4.597-3.736-9.505-6.999-14.791-9.681c-6.482-3.291-13.286-5.566-20.549-6.314
		c-7.118-0.732-14.042,0.235-20.805,2.484c-8.774,2.918-16.563,7.593-23.743,13.349c-2.086,1.673-3.578,1.402-4.863-0.875
		C20.279,55.782,20.279,55.317,20.279,54.852z"/>
	<path fill-rule="evenodd" clip-rule="evenodd" fill="#FFFFFF" d="M62.311,71.419c0.339-0.321,0.571-0.536,0.793-0.758
		c2.553-2.55,5.1-5.106,7.655-7.651c1.253-1.247,2.852-1.327,3.945-0.217c1.073,1.086,1.009,2.669-0.2,3.885
		c-3.345,3.362-6.699,6.717-10.061,10.062c-1.338,1.332-2.809,1.329-4.135,0.016c-1.613-1.597-3.218-3.203-4.815-4.814
		c-1.238-1.25-1.308-2.86-0.189-3.945c1.096-1.063,2.661-0.984,3.883,0.23C60.218,69.249,61.22,70.302,62.311,71.419z"/>
</g>
</svg>
